<?xml version="1.0" encoding="UTF-8" standalone="no"?>
<!-- Created with Inkscape (http://www.inkscape.org/) -->

<svg
   xmlns:dc="http://purl.org/dc/elements/1.1/"
   xmlns:cc="http://creativecommons.org/ns#"
   xmlns:rdf="http://www.w3.org/1999/02/22-rdf-syntax-ns#"
   xmlns:svg="http://www.w3.org/2000/svg"
   xmlns="http://www.w3.org/2000/svg"
   xmlns:sodipodi="http://sodipodi.sourceforge.net/DTD/sodipodi-0.dtd"
   xmlns:inkscape="http://www.inkscape.org/namespaces/inkscape"
   width="744.09448819"
   height="1052.3622047"
   id="svg3044"
   version="1.1"
   inkscape:version="0.48.5 r10040"
   sodipodi:docname="arm_coordsys.pdf">
  <defs
     id="defs3046">
    <marker
       inkscape:stockid="Arrow2Mstart"
       orient="auto"
       refY="0.0"
       refX="0.0"
       id="Arrow2Mstart"
       style="overflow:visible">
      <path
         id="path5156"
         style="fill-rule:evenodd;stroke-width:0.62500000;stroke-linejoin:round"
         d="M 8.7185878,4.0337352 L -2.2072895,0.016013256 L 8.7185884,-4.0017078 C 6.9730900,-1.6296469 6.9831476,1.6157441 8.7185878,4.0337352 z "
         transform="scale(0.6) translate(0,0)" />
    </marker>
    <marker
       inkscape:stockid="Arrow2Mend"
       orient="auto"
       refY="0.0"
       refX="0.0"
       id="Arrow2Mend"
       style="overflow:visible;">
      <path
         id="path5159"
         style="fill-rule:evenodd;stroke-width:0.62500000;stroke-linejoin:round;"
         d="M 8.7185878,4.0337352 L -2.2072895,0.016013256 L 8.7185884,-4.0017078 C 6.9730900,-1.6296469 6.9831476,1.6157441 8.7185878,4.0337352 z "
         transform="scale(0.6) rotate(180) translate(0,0)" />
    </marker>
    <marker
       inkscape:stockid="Arrow1Lend"
       orient="auto"
       refY="0.0"
       refX="0.0"
       id="Arrow1Lend"
       style="overflow:visible;">
      <path
         id="path5135"
         d="M 0.0,0.0 L 5.0,-5.0 L -12.5,0.0 L 5.0,5.0 L 0.0,0.0 z "
         style="fill-rule:evenodd;stroke:#000000;stroke-width:1.0pt;"
         transform="scale(0.8) rotate(180) translate(12.5,0)" />
    </marker>
  </defs>
  <sodipodi:namedview
     id="base"
     pagecolor="#ffffff"
     bordercolor="#666666"
     borderopacity="1.0"
     inkscape:pageopacity="0.0"
     inkscape:pageshadow="2"
     inkscape:zoom="2.8"
     inkscape:cx="342.74933"
     inkscape:cy="537.27551"
     inkscape:document-units="px"
     inkscape:current-layer="layer1"
     showgrid="true"
     inkscape:snap-global="true"
     inkscape:window-width="1918"
     inkscape:window-height="1059"
     inkscape:window-x="0"
     inkscape:window-y="19"
     inkscape:window-maximized="0">
    <inkscape:grid
       type="xygrid"
       id="grid3052" />
  </sodipodi:namedview>
  <metadata
     id="metadata3049">
    <rdf:RDF>
      <cc:Work
         rdf:about="">
        <dc:format>image/svg+xml</dc:format>
        <dc:type
           rdf:resource="http://purl.org/dc/dcmitype/StillImage" />
        <dc:title></dc:title>
      </cc:Work>
    </rdf:RDF>
  </metadata>
  <g
     inkscape:label="Layer 1"
     inkscape:groupmode="layer"
     id="layer1">
    <g
       id="g3996"
       transform="translate(-15,2.6171874e-6)">
      <path
         inkscape:connector-curvature="0"
         id="path3142"
         d="m 240,557.36218 290,0"
         style="opacity:0.3;fill:none;stroke:#000000;stroke-width:1px;stroke-linecap:butt;stroke-linejoin:miter;stroke-opacity:1" />
      <path
         inkscape:connector-curvature="0"
         id="path3144"
         d="m 245,557.36218 10,10"
         style="opacity:0.3;fill:none;stroke:#000000;stroke-width:1px;stroke-linecap:butt;stroke-linejoin:miter;stroke-opacity:1" />
      <path
         inkscape:connector-curvature="0"
         id="path3144-6"
         d="m 260,557.36218 10,10"
         style="opacity:0.3;fill:none;stroke:#000000;stroke-width:1px;stroke-linecap:butt;stroke-linejoin:miter;stroke-opacity:1" />
      <path
         inkscape:connector-curvature="0"
         id="path3144-5"
         d="m 275,557.36218 10,10"
         style="opacity:0.3;fill:none;stroke:#000000;stroke-width:1px;stroke-linecap:butt;stroke-linejoin:miter;stroke-opacity:1" />
      <path
         inkscape:connector-curvature="0"
         id="path3144-3"
         d="m 290,557.36218 10,10"
         style="opacity:0.3;fill:none;stroke:#000000;stroke-width:1px;stroke-linecap:butt;stroke-linejoin:miter;stroke-opacity:1" />
      <path
         inkscape:connector-curvature="0"
         id="path3144-6-7"
         d="m 305,557.36218 10,10"
         style="opacity:0.3;fill:none;stroke:#000000;stroke-width:1px;stroke-linecap:butt;stroke-linejoin:miter;stroke-opacity:1" />
      <path
         inkscape:connector-curvature="0"
         id="path3144-5-7"
         d="m 320,557.36218 10,10"
         style="opacity:0.3;fill:none;stroke:#000000;stroke-width:1px;stroke-linecap:butt;stroke-linejoin:miter;stroke-opacity:1" />
      <path
         inkscape:connector-curvature="0"
         id="path3144-9"
         d="m 335,557.36218 10,10"
         style="opacity:0.3;fill:none;stroke:#000000;stroke-width:1px;stroke-linecap:butt;stroke-linejoin:miter;stroke-opacity:1" />
      <path
         inkscape:connector-curvature="0"
         id="path3144-6-3"
         d="m 350,557.36218 10,10"
         style="opacity:0.3;fill:none;stroke:#000000;stroke-width:1px;stroke-linecap:butt;stroke-linejoin:miter;stroke-opacity:1" />
      <path
         inkscape:connector-curvature="0"
         id="path3144-5-9"
         d="m 365,557.36218 10,10"
         style="opacity:0.3;fill:none;stroke:#000000;stroke-width:1px;stroke-linecap:butt;stroke-linejoin:miter;stroke-opacity:1" />
      <path
         inkscape:connector-curvature="0"
         id="path3144-3-1"
         d="m 380,557.36218 10,10"
         style="opacity:0.3;fill:none;stroke:#000000;stroke-width:1px;stroke-linecap:butt;stroke-linejoin:miter;stroke-opacity:1" />
      <path
         inkscape:connector-curvature="0"
         id="path3144-6-7-4"
         d="m 395,557.36218 10,10"
         style="opacity:0.3;fill:none;stroke:#000000;stroke-width:1px;stroke-linecap:butt;stroke-linejoin:miter;stroke-opacity:1" />
      <path
         inkscape:connector-curvature="0"
         id="path3144-5-7-5"
         d="m 410,557.36218 10,10"
         style="opacity:0.3;fill:none;stroke:#000000;stroke-width:1px;stroke-linecap:butt;stroke-linejoin:miter;stroke-opacity:1" />
      <path
         inkscape:connector-curvature="0"
         id="path3144-4"
         d="m 425,557.36218 10,10"
         style="opacity:0.3;fill:none;stroke:#000000;stroke-width:1px;stroke-linecap:butt;stroke-linejoin:miter;stroke-opacity:1" />
      <path
         inkscape:connector-curvature="0"
         id="path3144-6-36"
         d="m 440,557.36218 10,10"
         style="opacity:0.3;fill:none;stroke:#000000;stroke-width:1px;stroke-linecap:butt;stroke-linejoin:miter;stroke-opacity:1" />
      <path
         inkscape:connector-curvature="0"
         id="path3144-5-5"
         d="m 455,557.36218 10,10"
         style="opacity:0.3;fill:none;stroke:#000000;stroke-width:1px;stroke-linecap:butt;stroke-linejoin:miter;stroke-opacity:1" />
      <path
         inkscape:connector-curvature="0"
         id="path3144-3-15"
         d="m 470,557.36218 10,10"
         style="opacity:0.3;fill:none;stroke:#000000;stroke-width:1px;stroke-linecap:butt;stroke-linejoin:miter;stroke-opacity:1" />
      <path
         inkscape:connector-curvature="0"
         id="path3144-6-7-1"
         d="m 485,557.36218 10,10"
         style="opacity:0.3;fill:none;stroke:#000000;stroke-width:1px;stroke-linecap:butt;stroke-linejoin:miter;stroke-opacity:1" />
      <path
         inkscape:connector-curvature="0"
         id="path3144-5-7-6"
         d="m 500,557.36218 10,10"
         style="opacity:0.3;fill:none;stroke:#000000;stroke-width:1px;stroke-linecap:butt;stroke-linejoin:miter;stroke-opacity:1" />
      <path
         inkscape:connector-curvature="0"
         id="path3144-9-5"
         d="m 515,557.36218 10,10"
         style="opacity:0.3;fill:none;stroke:#000000;stroke-width:1px;stroke-linecap:butt;stroke-linejoin:miter;stroke-opacity:1" />
    </g>
    <g
       transform="translate(125,-49.999997)"
       id="g4215"
       style="opacity:0.3">
      <path
         inkscape:connector-curvature="0"
         id="path3205-4"
         d="m 360,512.36218 20,-10 10,0 10,5 0,5 -20,0 -20,10 z"
         style="fill:none;stroke:#000000;stroke-width:1px;stroke-linecap:butt;stroke-linejoin:miter;stroke-opacity:1" />
      <path
         inkscape:connector-curvature="0"
         id="path3205-0-8"
         d="m 360,532.36218 20,10 10,0 10,-5 0,-5 -20,0 -20,-10 z"
         style="fill:none;stroke:#000000;stroke-width:1px;stroke-linecap:butt;stroke-linejoin:miter;stroke-opacity:1" />
      <path
         inkscape:connector-curvature="0"
         id="path3225-8"
         d="m 350,512.36218 10,0 0,20 -10,0 z"
         style="fill:none;stroke:#000000;stroke-width:0.89442724px;stroke-linecap:butt;stroke-linejoin:miter;stroke-opacity:1" />
      <path
         inkscape:connector-curvature="0"
         id="path3094-8"
         d="m 165,607.36218 80,0 0,-5 -80,0 z"
         style="fill:none;stroke:#000000;stroke-width:1px;stroke-linecap:butt;stroke-linejoin:miter;stroke-opacity:1" />
      <path
         transform="translate(159.5,357.36218)"
         d="m 70.5,190 c 0,13.80712 -11.192881,25 -25,25 -13.807119,0 -25,-11.19288 -25,-25 0,-13.80712 11.192881,-25 25,-25 13.807119,0 25,11.19288 25,25 z"
         sodipodi:ry="25"
         sodipodi:rx="25"
         sodipodi:cy="190"
         sodipodi:cx="45.5"
         id="path3098-7"
         style="fill:none;stroke:#000000;stroke-width:1px;stroke-linecap:butt;stroke-linejoin:miter;stroke-opacity:1"
         sodipodi:type="arc" />
      <path
         inkscape:connector-curvature="0"
         id="path3108-4"
         d="m 180,547.36218 0,55"
         style="fill:none;stroke:#000000;stroke-width:1px;stroke-linecap:butt;stroke-linejoin:miter;stroke-opacity:1" />
      <path
         inkscape:connector-curvature="0"
         id="path3110-6"
         d="m 230,602.36218 0,-55"
         style="fill:none;stroke:#000000;stroke-width:1px;stroke-linecap:butt;stroke-linejoin:miter;stroke-opacity:1" />
      <path
         transform="matrix(0.8,0,0,0.8,168.6,395.36218)"
         d="m 70.5,190 c 0,13.80712 -11.192881,25 -25,25 -13.807119,0 -25,-11.19288 -25,-25 0,-13.80712 11.192881,-25 25,-25 13.807119,0 25,11.19288 25,25 z"
         sodipodi:ry="25"
         sodipodi:rx="25"
         sodipodi:cy="190"
         sodipodi:cx="45.5"
         id="path3098-4-2"
         style="fill:none;stroke:#000000;stroke-width:1px;stroke-linecap:butt;stroke-linejoin:miter;stroke-opacity:1"
         sodipodi:type="arc" />
      <path
         transform="matrix(0.8,0,0,0.8,223.6,330.36218)"
         d="m 70.5,190 c 0,13.80712 -11.192881,25 -25,25 -13.807119,0 -25,-11.19288 -25,-25 0,-13.80712 11.192881,-25 25,-25 13.807119,0 25,11.19288 25,25 z"
         sodipodi:ry="25"
         sodipodi:rx="25"
         sodipodi:cy="190"
         sodipodi:cx="45.5"
         id="path3098-4-7-9"
         style="fill:none;stroke:#000000;stroke-width:1px;stroke-linecap:butt;stroke-linejoin:miter;stroke-opacity:1"
         sodipodi:type="arc" />
      <path
         transform="matrix(0.6,0,0,0.6,232.7,368.36218)"
         d="m 70.5,190 c 0,13.80712 -11.192881,25 -25,25 -13.807119,0 -25,-11.19288 -25,-25 0,-13.80712 11.192881,-25 25,-25 13.807119,0 25,11.19288 25,25 z"
         sodipodi:ry="25"
         sodipodi:rx="25"
         sodipodi:cy="190"
         sodipodi:cx="45.5"
         id="path3098-4-3-41"
         style="fill:none;stroke:#000000;stroke-width:1px;stroke-linecap:butt;stroke-linejoin:miter;stroke-opacity:1"
         sodipodi:type="arc" />
      <path
         inkscape:connector-curvature="0"
         id="path3200-8"
         d="m 305,512.36218 -20,0 0,20 20,0 z"
         style="fill:none;stroke:#000000;stroke-width:0.81649661px;stroke-linecap:butt;stroke-linejoin:miter;stroke-opacity:1" />
      <path
         transform="matrix(0.6,0,0,0.6,267.7,408.36218)"
         d="m 70.5,190 c 0,13.80712 -11.192881,25 -25,25 -13.807119,0 -25,-11.19288 -25,-25 0,-13.80712 11.192881,-25 25,-25 13.807119,0 25,11.19288 25,25 z"
         sodipodi:ry="25"
         sodipodi:rx="25"
         sodipodi:cy="190"
         sodipodi:cx="45.5"
         id="path3098-4-3-4-7"
         style="fill:none;stroke:#000000;stroke-width:1px;stroke-linecap:butt;stroke-linejoin:miter;stroke-opacity:1"
         sodipodi:type="arc" />
      <path
         inkscape:connector-curvature="0"
         id="path4016-1"
         d="M 190.68846,533.06521 245.86804,468.1629"
         style="fill:none;stroke:#000000;stroke-width:1px;stroke-linecap:butt;stroke-linejoin:miter;stroke-opacity:1" />
      <path
         inkscape:connector-curvature="0"
         id="path4018-9"
         d="m 219.099,561.60201 55.17958,-65.40737"
         style="fill:none;stroke:#000000;stroke-width:1px;stroke-linecap:butt;stroke-linejoin:miter;stroke-opacity:1" />
      <path
         inkscape:connector-curvature="0"
         id="path4020-1"
         d="m 268.0914,469.67813 34.59772,39.90103"
         style="fill:none;stroke:#000000;stroke-width:1px;stroke-linecap:butt;stroke-linejoin:miter;stroke-opacity:1" />
      <path
         inkscape:connector-curvature="0"
         id="path4022-6"
         d="m 249.52985,493.03791 34.47145,39.90103"
         style="fill:none;stroke:#000000;stroke-width:1px;stroke-linecap:butt;stroke-linejoin:miter;stroke-opacity:1" />
      <path
         inkscape:connector-curvature="0"
         id="path4069-5"
         d="m 305,512.36218 10,0 0,20 -10,0 z"
         style="fill:none;stroke:#000000;stroke-width:1px;stroke-linecap:butt;stroke-linejoin:miter;stroke-opacity:1" />
      <path
         inkscape:connector-curvature="0"
         id="path4071-6"
         d="m 315,512.36218 35,0 c 0,0 0,20 0,20 l -35,0 z"
         style="fill:none;stroke:#000000;stroke-width:1px;stroke-linecap:butt;stroke-linejoin:miter;stroke-opacity:1" />
      <path
         transform="translate(159.5,377.36218)"
         inkscape:connector-curvature="0"
         id="path3330"
         d="m 20.5,200 50,0"
         style="fill:none;stroke:#000000;stroke-width:1px;stroke-linecap:butt;stroke-linejoin:miter;stroke-opacity:1" />
      <path
         transform="translate(159.5,377.36218)"
         inkscape:connector-curvature="0"
         id="path3332"
         d="m 20.5,205 50,0"
         style="fill:none;stroke:#000000;stroke-width:1px;stroke-linecap:butt;stroke-linejoin:miter;stroke-opacity:1" />
      <path
         transform="translate(159.5,377.36218)"
         inkscape:connector-curvature="0"
         id="path3334"
         d="m 20.5,210 -5,0 0,10 5,0 z"
         style="fill:#000000;fill-opacity:1;stroke:#000000;stroke-width:1px;stroke-linecap:butt;stroke-linejoin:miter;stroke-opacity:1" />
    </g>
    <g
       id="g3974">
      <path
         inkscape:connector-curvature="0"
         id="path4881"
         d="m 330,532.36218 0,-120"
         style="fill:none;stroke:#000000;stroke-width:0.961;stroke-linecap:butt;stroke-linejoin:miter;stroke-opacity:1;stroke-miterlimit:4;stroke-dasharray:none;marker-mid:none;marker-end:url(#Arrow2Mend)" />
      <path
         inkscape:connector-curvature="0"
         id="path4881-2"
         d="m 210,532.36218 120,0"
         style="fill:none;stroke:#000000;stroke-width:0.96076894000000002px;stroke-linecap:butt;stroke-linejoin:miter;stroke-opacity:1;marker-end:none;marker-start:url(#Arrow2Mstart)" />
      <path
         inkscape:connector-curvature="0"
         id="path4881-2-1-7"
         d="m 330,532.36218 42.4264,-42.4264"
         style="fill:none;stroke:#000000;stroke-width:1;stroke-linecap:butt;stroke-linejoin:miter;stroke-miterlimit:4;stroke-opacity:1;stroke-dasharray:none;marker-end:url(#Arrow2Mend)" />
      <flowRoot
         inkscape:transform-center-y="-12.372071"
         transform="translate(60,-8.9673056)"
         style="font-size:14px;font-style:normal;font-weight:normal;line-height:125%;letter-spacing:0px;word-spacing:0px;fill:#000000;fill-opacity:1;stroke:none;font-family:Sans"
         id="flowRoot6498"
         xml:space="preserve"><flowRegion
           id="flowRegion6500"><rect
             style="font-size:14px"
             y="542.36218"
             x="150"
             height="55"
             width="20"
             id="rect6502" /></flowRegion><flowPara
           id="flowPara6504">y</flowPara></flowRoot>      <flowRoot
         transform="translate(198.5625,-126.09231)"
         style="font-size:40px;font-style:normal;font-weight:normal;line-height:125%;letter-spacing:0px;word-spacing:0px;fill:#000000;fill-opacity:1;stroke:none;font-family:Sans"
         id="flowRoot6506"
         xml:space="preserve"><flowRegion
           id="flowRegion6508"><rect
             y="534.50507"
             x="136.42857"
             height="108.57143"
             width="101.07143"
             id="rect6510" /></flowRegion><flowPara
           style="font-size:14px"
           id="flowPara6512">z</flowPara></flowRoot>      <flowRoot
         transform="translate(206.0625,-102.52981)"
         style="font-size:40px;font-style:normal;font-weight:normal;line-height:125%;letter-spacing:0px;word-spacing:0px;fill:#000000;fill-opacity:1;stroke:none;font-family:Sans"
         id="flowRoot6514"
         xml:space="preserve"><flowRegion
           id="flowRegion6516"><rect
             y="585.93359"
             x="168.92857"
             height="103.57143"
             width="65.714287"
             id="rect6518" /></flowRegion><flowPara
           style="font-size:14px"
           id="flowPara6520">x</flowPara></flowRoot>    </g>
    <g
       id="g3991"
       transform="translate(5,2.6171874e-6)">
      <path
         d="m 515,472.36218 c 0,2.76143 -2.23858,5 -5,5 -2.76142,0 -5,-2.23857 -5,-5 0,-2.76142 2.23858,-5 5,-5 2.76142,0 5,2.23858 5,5 z"
         sodipodi:ry="5"
         sodipodi:rx="5"
         sodipodi:cy="472.36218"
         sodipodi:cx="510"
         id="path3180"
         style="fill:none;stroke:#000000;stroke-width:0.96100003;stroke-miterlimit:4;stroke-opacity:1;stroke-dasharray:none;stroke-dashoffset:0"
         sodipodi:type="arc" />
      <path
         inkscape:connector-curvature="0"
         id="path3970"
         d="m 505,472.36218 10,0"
         style="fill:none;stroke:#000000;stroke-width:1px;stroke-linecap:butt;stroke-linejoin:miter;stroke-opacity:1" />
      <path
         inkscape:connector-curvature="0"
         id="path3972"
         d="m 510,467.36218 0,10"
         style="fill:none;stroke:#000000;stroke-width:1px;stroke-linecap:butt;stroke-linejoin:miter;stroke-opacity:1" />
    </g>
  </g>
</svg>
