<?xml version="1.0" encoding="UTF-8" standalone="no"?>
<!-- Created with Inkscape (http://www.inkscape.org/) -->

<svg
   xmlns:dc="http://purl.org/dc/elements/1.1/"
   xmlns:cc="http://creativecommons.org/ns#"
   xmlns:rdf="http://www.w3.org/1999/02/22-rdf-syntax-ns#"
   xmlns:svg="http://www.w3.org/2000/svg"
   xmlns="http://www.w3.org/2000/svg"
   xmlns:sodipodi="http://sodipodi.sourceforge.net/DTD/sodipodi-0.dtd"
   xmlns:inkscape="http://www.inkscape.org/namespaces/inkscape"
   width="396.1507"
   height="236"
   id="svg3019"
   version="1.1"
   inkscape:version="0.48.5 r10040"
   sodipodi:docname="setup.pdf">
  <defs
     id="defs3021" />
  <sodipodi:namedview
     id="base"
     pagecolor="#ffffff"
     bordercolor="#666666"
     borderopacity="1.0"
     inkscape:pageopacity="0.0"
     inkscape:pageshadow="2"
     inkscape:zoom="1.979899"
     inkscape:cx="288.67752"
     inkscape:cy="152.98782"
     inkscape:document-units="px"
     inkscape:current-layer="layer1"
     showgrid="true"
     inkscape:snap-global="true"
     inkscape:window-width="1918"
     inkscape:window-height="1059"
     inkscape:window-x="0"
     inkscape:window-y="19"
     inkscape:window-maximized="0"
     fit-margin-top="5"
     fit-margin-right="5"
     fit-margin-bottom="5"
     fit-margin-left="5">
    <inkscape:grid
       type="xygrid"
       id="grid3027"
       empspacing="5"
       visible="true"
       enabled="true"
       snapvisiblegridlinesonly="true"
       originx="-104.5px"
       originy="-414.5px" />
  </sodipodi:namedview>
  <metadata
     id="metadata3024">
    <rdf:RDF>
      <cc:Work
         rdf:about="">
        <dc:format>image/svg+xml</dc:format>
        <dc:type
           rdf:resource="http://purl.org/dc/dcmitype/StillImage" />
        <dc:title></dc:title>
      </cc:Work>
    </rdf:RDF>
  </metadata>
  <g
     inkscape:label="Layer 1"
     inkscape:groupmode="layer"
     id="layer1"
     transform="translate(-104.5,-401.86218)">
    <g
       id="g4074"
       transform="translate(-55,-35)">
      <path
         transform="translate(80,120)"
         d="m 165,427.36218 c 0,22.09139 -17.90861,40 -40,40 -22.09139,0 -40,-17.90861 -40,-40 0,-22.09139 17.90861,-40 40,-40 22.09139,0 40,17.90861 40,40 z"
         sodipodi:ry="40"
         sodipodi:rx="40"
         sodipodi:cy="427.36218"
         sodipodi:cx="125"
         id="path3033-5"
         style="fill:none;stroke:#000000;stroke-width:1px;stroke-linecap:butt;stroke-linejoin:miter;stroke-opacity:1"
         sodipodi:type="arc" />
      <path
         inkscape:connector-curvature="0"
         id="path3183"
         d="m 180,567.36218 100,0 0,-20 -100,0 z"
         style="fill:none;stroke:#000000;stroke-width:0.6984303px;stroke-linecap:butt;stroke-linejoin:miter;stroke-opacity:1" />
      <path
         inkscape:connector-curvature="0"
         id="path3185"
         d="m 180,547.36218 0,-20 50,0 0,20"
         style="fill:none;stroke:#000000;stroke-width:0.84515423px;stroke-linecap:butt;stroke-linejoin:miter;stroke-opacity:1" />
      <path
         inkscape:connector-curvature="0"
         id="path3195"
         d="m 282.60868,547.36218 -42.60868,0 0,-20 70,0 0,20 z"
         style="fill:none;stroke:#000000;stroke-width:0.78018951px;stroke-linecap:butt;stroke-linejoin:miter;stroke-opacity:1" />
      <path
         inkscape:connector-curvature="0"
         id="path3197"
         d="m 310,547.36218 10,10 20,0 0,-20 -10,-10 -20,0 z"
         style="fill:none;stroke:#000000;stroke-width:1px;stroke-linecap:butt;stroke-linejoin:miter;stroke-opacity:1" />
      <path
         inkscape:connector-curvature="0"
         id="path3199"
         d="m 320,557.36218 20,0 10,10 0,20 -20,0 -10,-10 z"
         style="fill:none;stroke:#000000;stroke-width:1px;stroke-linecap:butt;stroke-linejoin:miter;stroke-opacity:1" />
      <path
         inkscape:connector-curvature="0"
         id="path3205"
         d="m 360,567.36218 20,-10 10,0 10,5 0,5 -20,0 -20,10 z"
         style="fill:none;stroke:#000000;stroke-width:1px;stroke-linecap:butt;stroke-linejoin:miter;stroke-opacity:1" />
      <path
         inkscape:connector-curvature="0"
         id="path3205-0"
         d="m 360,587.36218 20,10 10,0 10,-5 0,-5 -20,0 -20,-10 z"
         style="fill:none;stroke:#000000;stroke-width:1px;stroke-linecap:butt;stroke-linejoin:miter;stroke-opacity:1" />
      <path
         inkscape:connector-curvature="0"
         id="path3225"
         d="m 350,567.36218 10,0 0,20 -10,0 z"
         style="fill:none;stroke:#000000;stroke-width:0.89442724px;stroke-linecap:butt;stroke-linejoin:miter;stroke-opacity:1" />
    </g>
    <g
       id="g4066"
       transform="translate(-89.8493,-29.849297)">
      <path
         inkscape:connector-curvature="0"
         id="path3227"
         d="m 580,527.36218 0,45 -20,10 0,-65 z"
         style="fill:none;stroke:#000000;stroke-width:1px;stroke-linecap:butt;stroke-linejoin:miter;stroke-opacity:1" />
      <path
         inkscape:connector-curvature="0"
         id="path3229"
         d="m 580,537.36218 5,0 0,25 -5,0 z"
         style="fill:none;stroke:#000000;stroke-width:1px;stroke-linecap:butt;stroke-linejoin:miter;stroke-opacity:1" />
      <path
         inkscape:connector-curvature="0"
         id="path3231"
         d="m 559.8493,567.51288 2.3014,0 0,-5.3014 -2.3014,0 z"
         style="fill:#000000;fill-opacity:1;stroke:#000000;stroke-width:0.69859046px;stroke-linecap:butt;stroke-linejoin:miter;stroke-opacity:1" />
      <path
         inkscape:connector-curvature="0"
         id="path3231-7"
         d="m 559.8493,547.51288 2.3014,0 0,-5.3014 -2.3014,0 z"
         style="fill:#000000;fill-opacity:1;stroke:#000000;stroke-width:0.69859046px;stroke-linecap:butt;stroke-linejoin:miter;stroke-opacity:1" />
      <path
         inkscape:connector-curvature="0"
         id="path3231-4"
         d="m 559.8493,537.51288 2.3014,0 0,-5.3014 -2.3014,0 z"
         style="fill:#000000;fill-opacity:1;stroke:#000000;stroke-width:0.69859046px;stroke-linecap:butt;stroke-linejoin:miter;stroke-opacity:1" />
      <path
         inkscape:connector-curvature="0"
         id="path3229-3"
         d="m 557.68476,537.04694 2.31524,0 0,25.31524 -2.31524,0 z"
         style="fill:none;stroke:#000000;stroke-width:0.68475407px;stroke-linecap:butt;stroke-linejoin:miter;stroke-opacity:1" />
    </g>
    <path
       style="fill:none;stroke:#000000;stroke-width:1;stroke-linecap:butt;stroke-linejoin:miter;stroke-miterlimit:4;stroke-opacity:1;stroke-dasharray:3, 3;stroke-dashoffset:0"
       d="m 465,482.36218 -240,-75"
       id="path4097"
       inkscape:connector-curvature="0" />
    <path
       style="fill:none;stroke:#000000;stroke-width:1;stroke-linecap:butt;stroke-linejoin:miter;stroke-miterlimit:4;stroke-opacity:1;stroke-dasharray:3, 3;stroke-dashoffset:0"
       d="m 465,557.36218 -240,75"
       id="path4097-4"
       inkscape:connector-curvature="0" />
  </g>
</svg>
