<?xml version="1.0" encoding="UTF-8" standalone="no"?>
<!-- Created with Inkscape (http://www.inkscape.org/) -->

<svg
   xmlns:dc="http://purl.org/dc/elements/1.1/"
   xmlns:cc="http://creativecommons.org/ns#"
   xmlns:rdf="http://www.w3.org/1999/02/22-rdf-syntax-ns#"
   xmlns:svg="http://www.w3.org/2000/svg"
   xmlns="http://www.w3.org/2000/svg"
   xmlns:sodipodi="http://sodipodi.sourceforge.net/DTD/sodipodi-0.dtd"
   xmlns:inkscape="http://www.inkscape.org/namespaces/inkscape"
   width="396.1507"
   height="235"
   id="svg3041"
   version="1.1"
   inkscape:version="0.48.5 r10040"
   sodipodi:docname="setup_side_2.pdf">
  <defs
     id="defs3043" />
  <sodipodi:namedview
     id="base"
     pagecolor="#ffffff"
     bordercolor="#666666"
     borderopacity="1.0"
     inkscape:pageopacity="0.0"
     inkscape:pageshadow="2"
     inkscape:zoom="1.979899"
     inkscape:cx="169.38647"
     inkscape:cy="86.55164"
     inkscape:document-units="px"
     inkscape:current-layer="layer1"
     showgrid="true"
     fit-margin-top="5"
     fit-margin-left="5"
     fit-margin-bottom="5"
     fit-margin-right="5"
     inkscape:snap-global="true"
     inkscape:window-width="1918"
     inkscape:window-height="1059"
     inkscape:window-x="0"
     inkscape:window-y="19"
     inkscape:window-maximized="0">
    <inkscape:grid
       type="xygrid"
       id="grid3049"
       empspacing="5"
       visible="true"
       enabled="true"
       snapvisiblegridlinesonly="true"
       originx="-159.5px"
       originy="-440px" />
  </sodipodi:namedview>
  <metadata
     id="metadata3046">
    <rdf:RDF>
      <cc:Work
         rdf:about="">
        <dc:format>image/svg+xml</dc:format>
        <dc:type
           rdf:resource="http://purl.org/dc/dcmitype/StillImage" />
        <dc:title></dc:title>
      </cc:Work>
    </rdf:RDF>
  </metadata>
  <g
     inkscape:label="Layer 1"
     inkscape:groupmode="layer"
     id="layer1"
     transform="translate(-159.5,-377.36218)">
    <path
       style="fill:none;stroke:#000000;stroke-width:1;stroke-linecap:butt;stroke-linejoin:miter;stroke-miterlimit:4;stroke-opacity:1;stroke-dasharray:3, 3;stroke-dashoffset:0"
       d="m 520,532.36218 -240,-75"
       id="path4097"
       inkscape:connector-curvature="0" />
    <path
       style="fill:none;stroke:#000000;stroke-width:1;stroke-linecap:butt;stroke-linejoin:miter;stroke-miterlimit:4;stroke-opacity:1;stroke-dasharray:3,3;stroke-dashoffset:0"
       d="m 520,562.36218 -160,50"
       id="path4097-4-2"
       inkscape:connector-curvature="0" />
    <g
       id="g3115">
      <path
         inkscape:connector-curvature="0"
         id="path3220"
         d="m 550,607.40832 0,-45.04614 -27.04614,0 0,45.04614 z"
         style="fill:none;stroke:#000000;stroke-width:1;stroke-linecap:butt;stroke-linejoin:miter;stroke-miterlimit:4;stroke-opacity:1;stroke-dasharray:none" />
      <path
         inkscape:connector-curvature="0"
         id="path3990"
         d="m 549.97707,562.40832 -4.50769,-5.04614 -18.03076,0 -4.50769,5.04614 z"
         style="fill:none;stroke:#000000;stroke-width:0.95386398px;stroke-linecap:butt;stroke-linejoin:miter;stroke-opacity:1" />
      <path
         inkscape:connector-curvature="0"
         id="path3992"
         d="m 525,557.36218 20,-5 0,-10 -20,-5 z"
         style="fill:none;stroke:#000000;stroke-width:1px;stroke-linecap:butt;stroke-linejoin:miter;stroke-opacity:1" />
      <path
         inkscape:connector-curvature="0"
         id="path3994"
         d="m 543,557.33771 0,-4.21891"
         style="fill:none;stroke:#000000;stroke-width:0.91857582px;stroke-linecap:butt;stroke-linejoin:miter;stroke-opacity:1" />
      <path
         inkscape:connector-curvature="0"
         id="path3231-7"
         d="m 525.67829,547.99353 2.3014,0 0,-5.3014 -2.3014,0 z"
         style="fill:#000000;fill-opacity:1;stroke:#000000;stroke-width:0.69859046px;stroke-linecap:butt;stroke-linejoin:miter;stroke-opacity:1" />
    </g>
    <g
       id="g4215">
      <path
         inkscape:connector-curvature="0"
         id="path3205"
         d="m 360,512.36218 20,-10 10,0 10,5 0,5 -20,0 -20,10 z"
         style="fill:none;stroke:#000000;stroke-width:1px;stroke-linecap:butt;stroke-linejoin:miter;stroke-opacity:1" />
      <path
         inkscape:connector-curvature="0"
         id="path3205-0"
         d="m 360,532.36218 20,10 10,0 10,-5 0,-5 -20,0 -20,-10 z"
         style="fill:none;stroke:#000000;stroke-width:1px;stroke-linecap:butt;stroke-linejoin:miter;stroke-opacity:1" />
      <path
         inkscape:connector-curvature="0"
         id="path3225"
         d="m 350,512.36218 10,0 0,20 -10,0 z"
         style="fill:none;stroke:#000000;stroke-width:0.89442724px;stroke-linecap:butt;stroke-linejoin:miter;stroke-opacity:1" />
      <path
         inkscape:connector-curvature="0"
         id="path3094"
         d="m 165,607.36218 80,0 0,-5 -80,0 z"
         style="fill:none;stroke:#000000;stroke-width:1px;stroke-linecap:butt;stroke-linejoin:miter;stroke-opacity:1" />
      <path
         transform="translate(159.5,357.36218)"
         d="m 70.5,190 a 25,25 0 1 1 -50,0 25,25 0 1 1 50,0 z"
         sodipodi:ry="25"
         sodipodi:rx="25"
         sodipodi:cy="190"
         sodipodi:cx="45.5"
         id="path3098"
         style="fill:none;stroke:#000000;stroke-width:1px;stroke-linecap:butt;stroke-linejoin:miter;stroke-opacity:1"
         sodipodi:type="arc" />
      <path
         inkscape:connector-curvature="0"
         id="path3108"
         d="m 180,547.36218 0,55"
         style="fill:none;stroke:#000000;stroke-width:1px;stroke-linecap:butt;stroke-linejoin:miter;stroke-opacity:1" />
      <path
         inkscape:connector-curvature="0"
         id="path3110"
         d="m 230,602.36218 0,-55"
         style="fill:none;stroke:#000000;stroke-width:1px;stroke-linecap:butt;stroke-linejoin:miter;stroke-opacity:1" />
      <path
         transform="matrix(0.8,0,0,0.8,168.6,395.36218)"
         d="m 70.5,190 a 25,25 0 1 1 -50,0 25,25 0 1 1 50,0 z"
         sodipodi:ry="25"
         sodipodi:rx="25"
         sodipodi:cy="190"
         sodipodi:cx="45.5"
         id="path3098-4"
         style="fill:none;stroke:#000000;stroke-width:1px;stroke-linecap:butt;stroke-linejoin:miter;stroke-opacity:1"
         sodipodi:type="arc" />
      <path
         transform="matrix(0.8,0,0,0.8,223.6,330.36218)"
         d="m 70.5,190 a 25,25 0 1 1 -50,0 25,25 0 1 1 50,0 z"
         sodipodi:ry="25"
         sodipodi:rx="25"
         sodipodi:cy="190"
         sodipodi:cx="45.5"
         id="path3098-4-7"
         style="fill:none;stroke:#000000;stroke-width:1px;stroke-linecap:butt;stroke-linejoin:miter;stroke-opacity:1"
         sodipodi:type="arc" />
      <path
         transform="matrix(0.6,0,0,0.6,232.7,368.36218)"
         d="m 70.5,190 a 25,25 0 1 1 -50,0 25,25 0 1 1 50,0 z"
         sodipodi:ry="25"
         sodipodi:rx="25"
         sodipodi:cy="190"
         sodipodi:cx="45.5"
         id="path3098-4-3"
         style="fill:none;stroke:#000000;stroke-width:1px;stroke-linecap:butt;stroke-linejoin:miter;stroke-opacity:1"
         sodipodi:type="arc" />
      <path
         inkscape:connector-curvature="0"
         id="path3200"
         d="m 305,512.36218 -20,0 0,20 20,0 z"
         style="fill:none;stroke:#000000;stroke-width:0.81649661px;stroke-linecap:butt;stroke-linejoin:miter;stroke-opacity:1" />
      <path
         transform="matrix(0.6,0,0,0.6,267.7,408.36218)"
         d="m 70.5,190 a 25,25 0 1 1 -50,0 25,25 0 1 1 50,0 z"
         sodipodi:ry="25"
         sodipodi:rx="25"
         sodipodi:cy="190"
         sodipodi:cx="45.5"
         id="path3098-4-3-4"
         style="fill:none;stroke:#000000;stroke-width:1px;stroke-linecap:butt;stroke-linejoin:miter;stroke-opacity:1"
         sodipodi:type="arc" />
      <path
         inkscape:connector-curvature="0"
         id="path4016"
         d="M 190.68846,533.06521 245.86804,468.1629"
         style="fill:none;stroke:#000000;stroke-width:1px;stroke-linecap:butt;stroke-linejoin:miter;stroke-opacity:1" />
      <path
         inkscape:connector-curvature="0"
         id="path4018"
         d="m 219.099,561.60201 55.17958,-65.40737"
         style="fill:none;stroke:#000000;stroke-width:1px;stroke-linecap:butt;stroke-linejoin:miter;stroke-opacity:1" />
      <path
         inkscape:connector-curvature="0"
         id="path4020"
         d="m 268.0914,469.67813 34.59772,39.90103"
         style="fill:none;stroke:#000000;stroke-width:1px;stroke-linecap:butt;stroke-linejoin:miter;stroke-opacity:1" />
      <path
         inkscape:connector-curvature="0"
         id="path4022"
         d="m 249.52985,493.03791 34.47145,39.90103"
         style="fill:none;stroke:#000000;stroke-width:1px;stroke-linecap:butt;stroke-linejoin:miter;stroke-opacity:1" />
      <path
         inkscape:connector-curvature="0"
         id="path4069"
         d="m 305,512.36218 10,0 0,20 -10,0 z"
         style="fill:none;stroke:#000000;stroke-width:1px;stroke-linecap:butt;stroke-linejoin:miter;stroke-opacity:1" />
      <path
         inkscape:connector-curvature="0"
         id="path4071"
         d="m 315,512.36218 35,0 c 0,0 0,20 0,20 l -35,0 z"
         style="fill:none;stroke:#000000;stroke-width:1px;stroke-linecap:butt;stroke-linejoin:miter;stroke-opacity:1" />
      <path
         transform="translate(159.5,377.36218)"
         inkscape:connector-curvature="0"
         id="path3330"
         d="m 20.5,200 50,0"
         style="fill:none;stroke:#000000;stroke-width:1px;stroke-linecap:butt;stroke-linejoin:miter;stroke-opacity:1" />
      <path
         transform="translate(159.5,377.36218)"
         inkscape:connector-curvature="0"
         id="path3332"
         d="m 20.5,205 50,0"
         style="fill:none;stroke:#000000;stroke-width:1px;stroke-linecap:butt;stroke-linejoin:miter;stroke-opacity:1" />
      <path
         transform="translate(159.5,377.36218)"
         inkscape:connector-curvature="0"
         id="path3334"
         d="m 20.5,210 -5,0 0,10 5,0 z"
         style="fill:#000000;stroke:#000000;stroke-width:1px;stroke-linecap:butt;stroke-linejoin:miter;stroke-opacity:1;fill-opacity:1" />
    </g>
  </g>
</svg>
